<?xml version="1.0" encoding="iso-8859-1"?>
<!-- Generator: Adobe Illustrator 19.0.0, SVG Export Plug-In . SVG Version: 6.00 Build 0)  -->
<svg version="1.1" id="Layer_1" xmlns="http://www.w3.org/2000/svg" xmlns:xlink="http://www.w3.org/1999/xlink" x="0px" y="0px"
	 viewBox="0 0 505 505" style="enable-background:new 0 0 505 505;" xml:space="preserve">
<circle style="fill:#41bfc1;" cx="252.5" cy="252.5" r="252.5"/>
<path style="fill:#324A5E;" d="M375.9,428.1H129.1c-2.6,0-4.8-2.1-4.8-4.8V81.7c0-2.6,2.1-4.8,4.8-4.8h246.7c2.6,0,4.8,2.1,4.8,4.8
	v341.7C380.6,426,378.5,428.1,375.9,428.1z"/>
<rect x="146.5" y="115.7" style="fill:#FFFFFF;" width="211.9" height="267"/>
<g>
	<path style="fill:#2B3B4E;" d="M296.1,106.7h-60.5c-2.5,0-4.6-2.1-4.6-4.6l0,0c0-2.5,2.1-4.6,4.6-4.6h60.5c2.5,0,4.6,2.1,4.6,4.6
		l0,0C300.7,104.6,298.7,106.7,296.1,106.7z"/>
	<path style="fill:#2B3B4E;" d="M216.8,106.7h-8c-2.5,0-4.6-2.1-4.6-4.6l0,0c0-2.5,2.1-4.6,4.6-4.6h8c2.5,0,4.6,2.1,4.6,4.6l0,0
		C221.4,104.6,219.4,106.7,216.8,106.7z"/>
	<circle style="fill:#2B3B4E;" cx="252.5" cy="404.7" r="12.5"/>
</g>
<g>
	<path style="fill:#54C0EB;" d="M339.9,364h-27.4c-1.1,0-2-0.9-2-2V246c0-1.1,0.9-2,2-2h27.4c1.1,0,2,0.9,2,2v116
		C341.9,363.1,341,364,339.9,364z"/>
	<path style="fill:#54C0EB;" d="M290.8,363.5h-27.4c-1.1,0-2-0.9-2-2v-69.3c0-1.1,0.9-2,2-2h27.4c1.1,0,2,0.9,2,2v69.3
		C292.7,362.7,291.8,363.5,290.8,363.5z"/>
	<path style="fill:#54C0EB;" d="M241.6,363.5h-27.4c-1.1,0-2-0.9-2-2v-89.9c0-1.1,0.9-2,2-2h27.4c1.1,0,2,0.9,2,2v89.9
		C243.6,362.7,242.7,363.5,241.6,363.5z"/>
	<path style="fill:#54C0EB;" d="M192.5,363.5h-27.4c-1.1,0-2-0.9-2-2v-40.4c0-1.1,0.9-2,2-2h27.4c1.1,0,2,0.9,2,2v40.4
		C194.4,362.7,193.5,363.5,192.5,363.5z"/>
</g>
<polygon style="fill:#FFD05B;" points="307.5,136.1 258.7,146.8 270.1,158.2 202.2,226.1 146.5,170.4 146.5,196.9 202.2,252.6
	283.4,171.5 296.8,184.9 "/>
<g>
</g>
<g>
</g>
<g>
</g>
<g>
</g>
<g>
</g>
<g>
</g>
<g>
</g>
<g>
</g>
<g>
</g>
<g>
</g>
<g>
</g>
<g>
</g>
<g>
</g>
<g>
</g>
<g>
</g>
</svg>
