<?xml version="1.0" encoding="iso-8859-1"?>
<!-- Generator: Adobe Illustrator 19.0.0, SVG Export Plug-In . SVG Version: 6.00 Build 0)  -->
<svg version="1.1" id="Layer_1" xmlns="http://www.w3.org/2000/svg" xmlns:xlink="http://www.w3.org/1999/xlink" x="0px" y="0px"
	 viewBox="0 0 505 505" style="enable-background:new 0 0 505 505;" xml:space="preserve">
<circle style="fill:#41bfc1;" cx="252.5" cy="252.5" r="252.5"/>
<path style="fill:#FFFFFF;" d="M90.8,180.1v188.4c0,1.5,1.2,2.6,2.6,2.6h318.1c1.5,0,2.6-1.2,2.6-2.6V180.1H90.8z"/>
<path style="fill:#FF7058;" d="M414.2,182.4v-32.1c0-9.1-7.4-16.5-16.5-16.5H107.3c-9.1,0-16.5,7.4-16.5,16.5v32.1H414.2z"/>
<path style="fill:#FFFFFF;" d="M282.7,169.9H124.1c-6.5,0-11.7-5.2-11.7-11.7l0,0c0-6.5,5.2-11.7,11.7-11.7h158.6
	c6.5,0,11.7,5.2,11.7,11.7l0,0C294.4,164.6,289.2,169.9,282.7,169.9z"/>
<g>
	<circle style="fill:#FFD05B;" cx="380.7" cy="158.4" r="11.9"/>
	<circle style="fill:#FFD05B;" cx="346.1" cy="158.4" r="11.9"/>
</g>
<g>
	<path style="fill:#41bfc1;" d="M125,162.5h-2.4l-2.8-8.2h2.4l1.6,4.9l1.6-4.9h2.2l1.6,4.9l1.6-4.9h2.4l-2.8,8.2H128l-1.5-4.5
		L125,162.5z"/>
	<path style="fill:#41bfc1;" d="M138.7,162.5h-2.4l-2.8-8.2h2.4l1.6,4.9l1.6-4.9h2.2l1.6,4.9l1.6-4.9h2.4l-2.8,8.2h-2.4l-1.5-4.5
		L138.7,162.5z"/>
	<path style="fill:#41bfc1;" d="M152.4,162.5H150l-2.8-8.2h2.4l1.6,4.9l1.6-4.9h2.2l1.6,4.9l1.6-4.9h2.4l-2.8,8.2h-2.4l-1.5-4.5
		L152.4,162.5z"/>
</g>
<polygon style="fill:#2C9984;" points="161.1,324.9 150.8,317 218.4,229.3 284.2,293 346.6,243.1 354.7,253.3 283.4,310.4
	219.8,248.8 "/>
<g>
	<circle style="fill:#4CDBC4;" cx="350.7" cy="248.2" r="24.2"/>
	<circle style="fill:#4CDBC4;" cx="283.8" cy="299.3" r="24.2"/>
	<circle style="fill:#4CDBC4;" cx="219.1" cy="239.1" r="24.2"/>
	<circle style="fill:#4CDBC4;" cx="154.3" cy="320.9" r="24.2"/>
</g>
<g>
</g>
<g>
</g>
<g>
</g>
<g>
</g>
<g>
</g>
<g>
</g>
<g>
</g>
<g>
</g>
<g>
</g>
<g>
</g>
<g>
</g>
<g>
</g>
<g>
</g>
<g>
</g>
<g>
</g>
</svg>
