<?xml version="1.0" encoding="iso-8859-1"?>
<!-- Generator: Adobe Illustrator 19.0.0, SVG Export Plug-In . SVG Version: 6.00 Build 0)  -->
<svg version="1.1" id="Capa_1" xmlns="http://www.w3.org/2000/svg" xmlns:xlink="http://www.w3.org/1999/xlink" x="0px" y="0px"
	 viewBox="0 0 512 512" style="enable-background:new 0 0 512 512;" xml:space="preserve">
<g>
	<path style="fill:#F0C419;" d="M145.067,109.653c-2.342,0.862-4.819,1.296-7.314,1.28c-12.142,0-43.886-21.333-43.886-21.333
		s31.744-21.333,43.886-21.333c2.495-0.016,4.973,0.418,7.314,1.28"/>
	<path style="fill:#3D324C;" d="M273.067,132.267l-48.827,40.689c-1.533,1.278-3.466,1.978-5.462,1.978h-70.176
		c-3.451,0-6.563-2.079-7.884-5.268c-1.321-3.189-0.591-6.859,1.85-9.3l28.099-28.099L136.533,115.2V64l34.133-17.067
		l-28.099-28.099c-2.441-2.441-3.171-6.111-1.85-9.3s4.432-5.268,7.884-5.268h70.176c1.996,0,3.929,0.7,5.463,1.978l48.826,40.689
		V132.267z"/>
	<rect x="170.667" y="46.933" style="fill:#894B9D;" width="187.733" height="85.333"/>
	<path style="fill:#3D324C;" d="M213.333,140.8c-2.263,0.001-4.434-0.898-6.035-2.499c-1.6-1.6-2.499-3.771-2.499-6.035V46.933
		c0-4.713,3.82-8.533,8.533-8.533s8.533,3.821,8.533,8.533v85.333c0.001,2.263-0.898,4.434-2.499,6.035
		C217.768,139.902,215.597,140.801,213.333,140.8z"/>
	<g>
		<path style="fill:#FFFFFF;" d="M324.267,106.667c-2.263,0.001-4.434-0.898-6.035-2.499c-1.6-1.6-2.499-3.771-2.499-6.035V81.067
			c0-4.713,3.821-8.533,8.533-8.533s8.533,3.82,8.533,8.533v17.067c0.001,2.263-0.898,4.434-2.499,6.035
			C328.701,105.768,326.53,106.667,324.267,106.667z"/>
		<path style="fill:#FFFFFF;" d="M290.133,106.667c-2.263,0.001-4.434-0.898-6.035-2.499c-1.6-1.6-2.499-3.771-2.499-6.035V81.067
			c0-4.713,3.821-8.533,8.533-8.533c4.713,0,8.533,3.82,8.533,8.533v17.067c0.001,2.263-0.898,4.434-2.499,6.035
			C294.568,105.768,292.397,106.667,290.133,106.667z"/>
	</g>
	<path style="fill:#95A5A5;" d="M290.133,507.733h-68.267c-4.713,0-8.533-3.821-8.533-8.533c0-4.713,3.821-8.533,8.533-8.533h68.267
		c4.713,0,8.533,3.821,8.533,8.533C298.667,503.913,294.846,507.733,290.133,507.733z"/>
	<path style="fill:#F0C419;" d="M324.267,362.667c0.041-30.732-20.456-57.705-50.076-65.896
		c-29.621-8.191-61.064,4.417-76.818,30.804c-15.755,26.387-11.937,60.048,9.326,82.237c9.789,10.296,15.223,23.975,15.168,38.181
		V448c0,9.426,7.641,17.067,17.067,17.067h34.133c9.426,0,17.067-7.641,17.067-17.067c-0.132-14.1,5.218-27.7,14.921-37.931
		C317.394,397.377,324.288,380.368,324.267,362.667z"/>
	<g>
		<path style="fill:#F3D55B;" d="M256,268.8c-2.263,0.001-4.434-0.898-6.035-2.499c-1.6-1.6-2.499-3.771-2.499-6.035V243.2
			c0-4.713,3.821-8.533,8.533-8.533c4.713,0,8.533,3.821,8.533,8.533v17.067c0.001,2.263-0.898,4.434-2.499,6.035
			C260.434,267.902,258.263,268.801,256,268.8z"/>
		<path style="fill:#F3D55B;" d="M183.592,298.792c-2.264,0.003-4.435-0.897-6.033-2.5l-12.067-12.067
			c-2.162-2.154-3.008-5.299-2.22-8.247c0.788-2.948,3.091-5.251,6.039-6.039s6.093,0.058,8.247,2.22l12.067,12.067
			c2.44,2.44,3.169,6.11,1.849,9.298C190.154,296.711,187.043,298.79,183.592,298.792L183.592,298.792z"/>
		<path style="fill:#F3D55B;" d="M153.6,371.2h-17.067c-4.713,0-8.533-3.82-8.533-8.533s3.821-8.533,8.533-8.533H153.6
			c4.713,0,8.533,3.82,8.533,8.533S158.313,371.2,153.6,371.2z"/>
		<path style="fill:#F3D55B;" d="M171.525,455.675c-3.451-0.001-6.562-2.08-7.882-5.268s-0.591-6.858,1.849-9.298l12.067-12.067
			c3.332-3.332,8.735-3.332,12.067,0c3.332,3.332,3.332,8.735,0,12.067l-12.067,12.067
			C175.96,454.778,173.789,455.678,171.525,455.675z"/>
		<path style="fill:#F3D55B;" d="M328.408,298.792c-3.451-0.001-6.562-2.08-7.882-5.268c-1.32-3.188-0.591-6.858,1.849-9.298
			l12.067-12.067c2.154-2.162,5.299-3.008,8.247-2.22c2.948,0.788,5.251,3.091,6.039,6.039s-0.058,6.093-2.22,8.247l-12.067,12.067
			C332.844,297.895,330.672,298.795,328.408,298.792z"/>
		<path style="fill:#F3D55B;" d="M375.467,371.2H358.4c-4.713,0-8.533-3.82-8.533-8.533s3.82-8.533,8.533-8.533h17.067
			c4.713,0,8.533,3.82,8.533,8.533S380.18,371.2,375.467,371.2z"/>
		<path style="fill:#F3D55B;" d="M340.475,455.675c-2.264,0.003-4.435-0.897-6.033-2.5l-12.067-12.067
			c-3.332-3.332-3.332-8.735,0-12.067c3.332-3.332,8.735-3.332,12.067,0l12.067,12.067c2.44,2.44,3.169,6.11,1.849,9.298
			S343.926,455.674,340.475,455.675L340.475,455.675z"/>
	</g>
	<g>
		<path style="fill:#24AE5F;" d="M42.667,115.2c-3.451-0.001-6.562-2.08-7.882-5.268c-1.32-3.188-0.591-6.858,1.849-9.298
			L47.667,89.6L36.634,78.566c-3.281-3.341-3.256-8.701,0.054-12.012c3.311-3.311,8.671-3.335,12.012-0.054l17.067,17.067
			c1.601,1.6,2.5,3.77,2.5,6.033s-0.899,4.433-2.5,6.033L48.7,112.7C47.101,114.303,44.93,115.203,42.667,115.2z"/>
		<path style="fill:#24AE5F;" d="M426.667,388.267c-2.264,0.003-4.435-0.897-6.033-2.5L403.567,368.7c-1.601-1.6-2.5-3.77-2.5-6.033
			c0-2.263,0.899-4.433,2.5-6.033l17.067-17.067c3.338-3.296,8.711-3.279,12.029,0.038c3.317,3.317,3.334,8.691,0.038,12.029
			l-11.033,11.034L432.7,373.7c2.44,2.441,3.169,6.11,1.849,9.299C433.229,386.187,430.118,388.266,426.667,388.267z"/>
		<path style="fill:#24AE5F;" d="M503.467,115.2c-2.263,0.001-4.434-0.898-6.035-2.499s-2.499-3.771-2.499-6.035
			c-0.005-4.711-3.822-8.529-8.533-8.533h-42.667c-4.713,0-8.533-3.821-8.533-8.533c0-4.713,3.821-8.533,8.533-8.533H486.4
			c14.132,0.015,25.585,11.468,25.6,25.6c0.001,2.263-0.898,4.434-2.499,6.035C507.901,114.302,505.73,115.201,503.467,115.2z"/>
		<path style="fill:#24AE5F;" d="M486.4,371.2h-76.8c-4.713,0-8.533-3.82-8.533-8.533s3.821-8.533,8.533-8.533h76.8
			c4.711-0.005,8.529-3.822,8.533-8.533c0-4.713,3.821-8.533,8.533-8.533c4.713,0,8.533,3.821,8.533,8.533
			C511.985,359.732,500.532,371.185,486.4,371.2z"/>
		<path style="fill:#24AE5F;" d="M503.467,183.467c-2.263,0.001-4.434-0.898-6.035-2.499s-2.499-3.771-2.499-6.035V140.8
			c0-4.713,3.821-8.533,8.533-8.533c4.713,0,8.533,3.82,8.533,8.533v34.133c0.001,2.263-0.898,4.434-2.499,6.035
			C507.901,182.568,505.73,183.467,503.467,183.467z"/>
		<path style="fill:#24AE5F;" d="M503.467,251.733c-2.263,0.001-4.434-0.898-6.035-2.499c-1.6-1.6-2.499-3.771-2.499-6.035v-34.133
			c0-4.713,3.821-8.533,8.533-8.533c4.713,0,8.533,3.821,8.533,8.533V243.2c0.001,2.263-0.898,4.434-2.499,6.035
			C507.901,250.835,505.73,251.734,503.467,251.733z"/>
		<path style="fill:#24AE5F;" d="M503.467,320c-2.263,0.001-4.434-0.898-6.035-2.499c-1.6-1.6-2.499-3.771-2.499-6.035v-34.133
			c0-4.713,3.821-8.533,8.533-8.533c4.713,0,8.533,3.82,8.533,8.533v34.133c0.001,2.263-0.898,4.434-2.499,6.035
			C507.901,319.102,505.73,320.001,503.467,320z"/>
		<path style="fill:#24AE5F;" d="M8.533,115.2c-2.263,0.001-4.434-0.898-6.035-2.499S-0.001,108.93,0,106.667
			c0.015-14.132,11.468-25.585,25.6-25.6h34.133c4.713,0,8.533,3.82,8.533,8.533c0,4.713-3.821,8.533-8.533,8.533H25.6
			c-4.711,0.005-8.529,3.822-8.533,8.533c0.001,2.263-0.898,4.434-2.499,6.035S10.797,115.201,8.533,115.2z"/>
		<path style="fill:#24AE5F;" d="M34.133,371.2H25.6C11.468,371.185,0.015,359.732,0,345.6c0-4.713,3.821-8.533,8.533-8.533
			s8.533,3.821,8.533,8.533c0.005,4.711,3.822,8.529,8.533,8.533h8.533c4.713,0,8.533,3.82,8.533,8.533S38.846,371.2,34.133,371.2z"
			/>
		<path style="fill:#24AE5F;" d="M8.533,183.467c-2.263,0.001-4.434-0.898-6.035-2.499s-2.499-3.771-2.499-6.035V140.8
			c0-4.713,3.821-8.533,8.533-8.533s8.533,3.82,8.533,8.533v34.133c0.001,2.263-0.898,4.434-2.499,6.035
			S10.797,183.467,8.533,183.467z"/>
		<path style="fill:#24AE5F;" d="M8.533,251.733c-2.263,0.001-4.434-0.898-6.035-2.499c-1.6-1.6-2.499-3.771-2.499-6.035v-34.133
			c0-4.713,3.821-8.533,8.533-8.533s8.533,3.821,8.533,8.533V243.2c0.001,2.263-0.898,4.434-2.499,6.035
			C12.968,250.835,10.797,251.734,8.533,251.733z"/>
		<path style="fill:#24AE5F;" d="M8.533,320c-2.263,0.001-4.434-0.898-6.035-2.499c-1.6-1.6-2.499-3.771-2.499-6.035v-34.133
			c0-4.713,3.821-8.533,8.533-8.533s8.533,3.82,8.533,8.533v34.133c0.001,2.263-0.898,4.434-2.499,6.035
			C12.968,319.102,10.797,320.001,8.533,320z"/>
		<path style="fill:#24AE5F;" d="M102.4,371.2H68.267c-4.713,0-8.533-3.82-8.533-8.533s3.821-8.533,8.533-8.533H102.4
			c4.713,0,8.533,3.82,8.533,8.533S107.113,371.2,102.4,371.2z"/>
	</g>
	<path style="fill:#3D324C;" d="M358.4,46.933c38.559,0,76.8,42.667,76.8,42.667s-38.24,42.667-76.8,42.667V46.933z"/>
</g>
<g>
</g>
<g>
</g>
<g>
</g>
<g>
</g>
<g>
</g>
<g>
</g>
<g>
</g>
<g>
</g>
<g>
</g>
<g>
</g>
<g>
</g>
<g>
</g>
<g>
</g>
<g>
</g>
<g>
</g>
</svg>
