<?xml version="1.0" encoding="iso-8859-1"?>
<!-- Generator: Adobe Illustrator 19.0.0, SVG Export Plug-In . SVG Version: 6.00 Build 0)  -->
<svg version="1.1" id="Capa_1" xmlns="http://www.w3.org/2000/svg" xmlns:xlink="http://www.w3.org/1999/xlink" x="0px" y="0px"
	 viewBox="0 0 512.008 512.008" style="enable-background:new 0 0 512.008 512.008;" xml:space="preserve">
<g>
	<polygon style="fill:#285680;" points="290.135,264.537 332.802,315.737 332.802,409.604 290.135,366.937 273.069,401.07 
		221.869,401.07 204.802,366.937 162.135,409.604 162.135,315.737 204.802,264.537 	"/>
	<g>
		<path style="fill:#C03A2B;" d="M386.644,258.562c-2.938,0-5.669-1.511-7.229-4c-1.56-2.489-1.73-5.606-0.45-8.25L495.785,4.82
			c2.053-4.243,7.157-6.019,11.4-3.967c4.243,2.053,6.019,7.157,3.967,11.4L394.331,253.745
			C392.905,256.693,389.918,258.564,386.644,258.562z"/>
		<path style="fill:#C03A2B;" d="M350.389,276.57c-0.562-0.001-1.123-0.055-1.675-0.163l-17.579-3.5
			c-4.623-0.92-7.625-5.414-6.704-10.038c0.92-4.623,5.414-7.625,10.037-6.704l17.579,3.5c4.304,0.855,7.258,4.836,6.83,9.204
			C358.449,273.238,354.778,276.568,350.389,276.57L350.389,276.57z"/>
		<path style="fill:#C03A2B;" d="M179.202,238.941c-0.915-0.001-1.824-0.149-2.692-0.438l-26.967-8.958
			c-2.894-0.962-5.055-3.394-5.669-6.381c-0.614-2.987,0.412-6.075,2.692-8.1c2.28-2.025,5.467-2.681,8.361-1.719l26.967,8.958
			c3.974,1.321,6.403,5.33,5.734,9.464C186.959,235.902,183.39,238.94,179.202,238.941z"/>
		<path style="fill:#C03A2B;" d="M8.531,512.008c-2.846-0.004-5.503-1.426-7.086-3.791s-1.883-5.364-0.801-7.996l109.737-266.496
			c1.159-2.823,3.736-4.813,6.761-5.218s6.035,0.834,7.897,3.252c1.862,2.418,2.291,5.646,1.125,8.466L16.427,506.72
			C15.109,509.92,11.991,512.008,8.531,512.008z"/>
	</g>
	<g>
		<path style="fill:#2C3E50;" d="M503.469,512.004H8.535c-4.713,0-8.533-3.821-8.533-8.533V8.537c0-4.713,3.821-8.533,8.533-8.533
			s8.533,3.821,8.533,8.533v486.4h486.4c4.713,0,8.533,3.82,8.533,8.533S508.182,512.004,503.469,512.004z"/>
		<path style="fill:#2C3E50;" d="M42.669,51.204c-2.264,0.003-4.435-0.897-6.033-2.5L2.502,14.57
			c-3.281-3.341-3.256-8.701,0.054-12.012s8.671-3.335,12.012-0.054l34.133,34.133c2.44,2.44,3.169,6.11,1.849,9.298
			C49.23,49.124,46.12,51.203,42.669,51.204z"/>
		<path style="fill:#2C3E50;" d="M503.469,512.004c-2.264,0.003-4.435-0.897-6.033-2.5l-34.133-34.133
			c-3.281-3.341-3.256-8.701,0.054-12.012c3.311-3.311,8.671-3.335,12.012-0.054l34.133,34.133c2.44,2.44,3.169,6.11,1.849,9.298
			C510.03,509.924,506.92,512.003,503.469,512.004z"/>
	</g>
	<path style="fill:#285680;" d="M204.802,179.204c0-38.559,42.667-76.8,42.667-76.8s42.667,38.24,42.667,76.8"/>
	<rect x="204.802" y="179.204" style="fill:#2FA8CC;" width="85.333" height="187.733"/>
	<path style="fill:#285680;" d="M290.135,332.804h-85.333c-4.713,0-8.533-3.821-8.533-8.533c0-4.713,3.821-8.533,8.533-8.533h85.333
		c4.713,0,8.533,3.821,8.533,8.533C298.669,328.983,294.848,332.804,290.135,332.804z"/>
	<path style="fill:#F29C1F;" d="M267.522,401.07c0.862,2.342,1.296,4.819,1.28,7.314c0,12.142-21.333,43.886-21.333,43.886
		s-21.333-31.744-21.333-43.886c-0.016-2.495,0.418-4.973,1.28-7.314"/>
	<g>
		<path style="fill:#FFFFFF;" d="M256.002,221.87h-17.067c-4.713,0-8.533-3.821-8.533-8.533c0-4.713,3.82-8.533,8.533-8.533h17.067
			c4.713,0,8.533,3.821,8.533,8.533C264.535,218.05,260.715,221.87,256.002,221.87z"/>
		<path style="fill:#FFFFFF;" d="M256.002,256.004h-17.067c-4.713,0-8.533-3.82-8.533-8.533s3.82-8.533,8.533-8.533h17.067
			c4.713,0,8.533,3.821,8.533,8.533S260.715,256.004,256.002,256.004z"/>
	</g>
	<g>
		<path style="fill:#2C3E50;" d="M34.135,93.87h-25.6c-4.713,0-8.533-3.821-8.533-8.533s3.821-8.533,8.533-8.533h25.6
			c4.713,0,8.533,3.821,8.533,8.533S38.848,93.87,34.135,93.87z"/>
		<path style="fill:#2C3E50;" d="M34.135,128.004h-25.6c-4.713,0-8.533-3.821-8.533-8.533c0-4.713,3.821-8.533,8.533-8.533h25.6
			c4.713,0,8.533,3.821,8.533,8.533C42.669,124.183,38.848,128.004,34.135,128.004z"/>
		<path style="fill:#2C3E50;" d="M34.135,162.137h-25.6c-4.713,0-8.533-3.821-8.533-8.533c0-4.713,3.821-8.533,8.533-8.533h25.6
			c4.713,0,8.533,3.821,8.533,8.533C42.669,158.317,38.848,162.137,34.135,162.137z"/>
		<path style="fill:#2C3E50;" d="M34.135,196.27h-25.6c-4.713,0-8.533-3.82-8.533-8.533s3.821-8.533,8.533-8.533h25.6
			c4.713,0,8.533,3.821,8.533,8.533S38.848,196.27,34.135,196.27z"/>
		<path style="fill:#2C3E50;" d="M34.135,230.404h-25.6c-4.713,0-8.533-3.821-8.533-8.533s3.821-8.533,8.533-8.533h25.6
			c4.713,0,8.533,3.82,8.533,8.533S38.848,230.404,34.135,230.404z"/>
		<path style="fill:#2C3E50;" d="M34.135,264.537h-25.6c-4.713,0-8.533-3.82-8.533-8.533c0-4.713,3.821-8.533,8.533-8.533h25.6
			c4.713,0,8.533,3.821,8.533,8.533C42.669,260.717,38.848,264.537,34.135,264.537z"/>
		<path style="fill:#2C3E50;" d="M34.135,298.67h-25.6c-4.713,0-8.533-3.821-8.533-8.533s3.821-8.533,8.533-8.533h25.6
			c4.713,0,8.533,3.82,8.533,8.533S38.848,298.67,34.135,298.67z"/>
		<path style="fill:#2C3E50;" d="M34.135,332.804h-25.6c-4.713,0-8.533-3.821-8.533-8.533c0-4.713,3.821-8.533,8.533-8.533h25.6
			c4.713,0,8.533,3.821,8.533,8.533C42.669,328.983,38.848,332.804,34.135,332.804z"/>
		<path style="fill:#2C3E50;" d="M34.135,366.937h-25.6c-4.713,0-8.533-3.821-8.533-8.533c0-4.713,3.821-8.533,8.533-8.533h25.6
			c4.713,0,8.533,3.821,8.533,8.533C42.669,363.117,38.848,366.937,34.135,366.937z"/>
		<path style="fill:#2C3E50;" d="M153.602,512.004c-4.713,0-8.533-3.821-8.533-8.533v-17.067c0-4.713,3.821-8.533,8.533-8.533
			c4.713,0,8.533,3.82,8.533,8.533v17.067C162.135,508.183,158.315,512.004,153.602,512.004z"/>
		<path style="fill:#2C3E50;" d="M119.469,512.004c-4.713,0-8.533-3.821-8.533-8.533v-17.067c0-4.713,3.821-8.533,8.533-8.533
			c4.713,0,8.533,3.82,8.533,8.533v17.067C128.002,508.183,124.182,512.004,119.469,512.004z"/>
		<path style="fill:#2C3E50;" d="M85.335,512.004c-4.713,0-8.533-3.821-8.533-8.533v-17.067c0-4.713,3.82-8.533,8.533-8.533
			c4.713,0,8.533,3.82,8.533,8.533v17.067C93.869,508.183,90.048,512.004,85.335,512.004z"/>
		<path style="fill:#2C3E50;" d="M51.202,512.004c-4.713,0-8.533-3.821-8.533-8.533v-17.067c0-4.713,3.821-8.533,8.533-8.533
			s8.533,3.82,8.533,8.533v17.067C59.735,508.183,55.915,512.004,51.202,512.004z"/>
		<path style="fill:#2C3E50;" d="M187.735,512.004c-4.713,0-8.533-3.821-8.533-8.533v-17.067c0-4.713,3.821-8.533,8.533-8.533
			c4.713,0,8.533,3.82,8.533,8.533v17.067C196.269,508.183,192.448,512.004,187.735,512.004z"/>
		<path style="fill:#2C3E50;" d="M221.869,512.004c-4.713,0-8.533-3.821-8.533-8.533v-17.067c0-4.713,3.821-8.533,8.533-8.533
			s8.533,3.82,8.533,8.533v17.067C230.402,508.183,226.582,512.004,221.869,512.004z"/>
		<path style="fill:#2C3E50;" d="M256.002,512.004c-4.713,0-8.533-3.821-8.533-8.533v-17.067c0-4.713,3.82-8.533,8.533-8.533
			c4.713,0,8.533,3.82,8.533,8.533v17.067C264.535,508.183,260.715,512.004,256.002,512.004z"/>
		<path style="fill:#2C3E50;" d="M290.135,512.004c-4.713,0-8.533-3.821-8.533-8.533v-17.067c0-4.713,3.821-8.533,8.533-8.533
			s8.533,3.82,8.533,8.533v17.067C298.669,508.183,294.848,512.004,290.135,512.004z"/>
		<path style="fill:#2C3E50;" d="M324.269,512.004c-4.713,0-8.533-3.821-8.533-8.533v-17.067c0-4.713,3.82-8.533,8.533-8.533
			s8.533,3.82,8.533,8.533v17.067C332.802,508.183,328.982,512.004,324.269,512.004z"/>
		<path style="fill:#2C3E50;" d="M358.402,512.004c-4.713,0-8.533-3.821-8.533-8.533v-17.067c0-4.713,3.82-8.533,8.533-8.533
			s8.533,3.82,8.533,8.533v17.067C366.935,508.183,363.115,512.004,358.402,512.004z"/>
		<path style="fill:#2C3E50;" d="M392.535,512.004c-4.713,0-8.533-3.821-8.533-8.533v-17.067c0-4.713,3.82-8.533,8.533-8.533
			s8.533,3.82,8.533,8.533v17.067C401.069,508.183,397.248,512.004,392.535,512.004z"/>
		<path style="fill:#2C3E50;" d="M426.669,512.004c-2.263,0.001-4.434-0.898-6.035-2.499c-1.6-1.6-2.499-3.771-2.499-6.035v-17.067
			c0-4.713,3.82-8.533,8.533-8.533s8.533,3.82,8.533,8.533v17.067c0.001,2.263-0.898,4.434-2.499,6.035
			C431.103,511.105,428.932,512.004,426.669,512.004z"/>
	</g>
	<g>
		<circle style="fill:#F0C419;" cx="128.002" cy="213.337" r="25.6"/>
		<circle style="fill:#F0C419;" cx="375.469" cy="273.07" r="25.6"/>
	</g>
</g>
<g>
</g>
<g>
</g>
<g>
</g>
<g>
</g>
<g>
</g>
<g>
</g>
<g>
</g>
<g>
</g>
<g>
</g>
<g>
</g>
<g>
</g>
<g>
</g>
<g>
</g>
<g>
</g>
<g>
</g>
</svg>
